<svg xmlns="http://www.w3.org/2000/svg" width="1200" height="560" viewBox="0 0 1200 560" role="img" aria-label="Relay Hop Interval Box Plot">
  <rect width="1200" height="560" fill="#ffffff"/>
  <text x="34" y="42" font-family="Arial, sans-serif" font-size="24" font-weight="700" fill="#172033">Relay Hop Interval Box Plot</text>
  <text x="34" y="68" font-family="Arial, sans-serif" font-size="14" fill="#526174">Distribution of minutes between consecutive relay hops.</text>
  <line x1="105" y1="465" x2="1140" y2="465" stroke="#d8e1ec" stroke-width="1" /><line x1="105" y1="95" x2="105" y2="465" stroke="#d8e1ec" stroke-width="1" /><line x1="277.5" y1="455.0324400564175" x2="277.5" y2="97.34837799717911" stroke="#256fb8" stroke-width="2" /><rect x="243.5" y="191.79231311706633" width="68" height="141.62023977433" fill="#256fb8" opacity=".28" stroke="#256fb8"/><line x1="239.5" y1="277.26022566995766" x2="315.5" y2="277.26022566995766" stroke="#256fb8" stroke-width="3" /><line x1="252.5" y1="455.0324400564175" x2="302.5" y2="455.0324400564175" stroke="#256fb8" stroke-width="2" /><line x1="252.5" y1="97.34837799717911" x2="302.5" y2="97.34837799717911" stroke="#256fb8" stroke-width="2" /><text x="277.5" y="489" font-family="Arial, sans-serif" font-size="12" fill="#172033" text-anchor="middle" fill="#526174">HiddenOrca</text><line x1="622.5" y1="397.8885754583921" x2="622.5" y2="101.83638928067705" stroke="#7057c8" stroke-width="2" /><rect x="588.5" y="186.16925246826514" width="68" height="136.77997179125532" fill="#7057c8" opacity=".28" stroke="#7057c8"/><line x1="584.5" y1="246.2877291960508" x2="660.5" y2="246.2877291960508" stroke="#7057c8" stroke-width="3" /><line x1="597.5" y1="397.8885754583921" x2="647.5" y2="397.8885754583921" stroke="#7057c8" stroke-width="2" /><line x1="597.5" y1="101.83638928067705" x2="647.5" y2="101.83638928067705" stroke="#7057c8" stroke-width="2" /><text x="622.5" y="489" font-family="Arial, sans-serif" font-size="12" fill="#172033" text-anchor="middle" fill="#526174">MellowOtter</text><line x1="967.5" y1="461.8166431593794" x2="967.5" y2="95" stroke="#c93b45" stroke-width="2" /><rect x="933.5" y="200.57263751763048" width="68" height="152.59238363892803" fill="#c93b45" opacity=".28" stroke="#c93b45"/><line x1="929.5" y1="263.50916784203105" x2="1005.5" y2="263.50916784203105" stroke="#c93b45" stroke-width="3" /><line x1="942.5" y1="461.8166431593794" x2="992.5" y2="461.8166431593794" stroke="#c93b45" stroke-width="2" /><line x1="942.5" y1="95" x2="992.5" y2="95" stroke="#c93b45" stroke-width="2" /><text x="967.5" y="489" font-family="Arial, sans-serif" font-size="12" fill="#172033" text-anchor="middle" fill="#526174">SwiftWren</text><text x="93" y="99" font-family="Arial, sans-serif" font-size="12" fill="#172033" text-anchor="end" fill="#7a8797">118</text>
</svg>